<svg width="105" height="37" viewBox="0 0 105 37" fill="none" xmlns="http://www.w3.org/2000/svg">
<path d="M90.0534 5.13873C87.1459 5.13854 84.3046 5.88537 81.8874 7.28479C79.4702 8.68421 77.5863 10.6734 76.4736 13.0007C75.3611 15.328 75.0697 17.889 75.6368 20.3597C76.2037 22.8305 77.6035 25.1001 79.659 26.8815C81.7144 28.6628 84.3333 29.876 87.1849 30.3675C90.0351 30.859 92.9906 30.6069 95.6769 29.643C98.362 28.6789 100.658 27.0464 102.272 24.9518C103.888 22.8572 104.75 20.3947 104.75 17.8755C104.745 14.4989 103.196 11.2617 100.441 8.87397C97.6859 6.48623 93.9499 5.14294 90.0534 5.13873ZM90.0534 25.7093C88.2656 25.7095 86.5179 25.2502 85.0308 24.3895C83.5441 23.5289 82.3853 22.3055 81.7009 20.8741C81.0165 19.4427 80.8373 17.8675 81.1859 16.3478C81.5347 14.8282 82.3956 13.4323 83.6597 12.3366C84.9239 11.2409 86.5351 10.4947 88.2885 10.1924C90.0419 9.89003 91.8595 10.0451 93.5109 10.638C95.1635 11.2309 96.5754 12.235 97.569 13.5233C98.5614 14.8116 99.0921 16.3262 99.0921 17.8755C99.0886 19.9521 98.1351 21.9426 96.4402 23.411C94.7463 24.8794 92.4497 25.7059 90.0534 25.7093ZM56.4062 5.13873C53.4992 5.13873 50.6576 5.88574 48.2406 7.28528C45.8235 8.68482 43.9397 10.674 42.8273 13.0014C41.7148 15.3288 41.4238 17.8896 41.9909 20.3603C42.5581 22.831 43.9578 25.1005 46.0133 26.8818C48.0688 28.6631 50.6877 29.8761 53.5388 30.3676C56.3898 30.859 59.3451 30.6069 62.0308 29.6429C64.7165 28.6788 67.0118 27.0463 68.6269 24.9517C70.2419 22.8571 71.1039 20.3946 71.1039 17.8755C71.0994 14.4987 69.5494 11.2614 66.794 8.87362C64.0386 6.48586 60.3029 5.14268 56.4062 5.13873ZM56.4062 25.7093C54.7404 25.71 53.1068 25.3119 51.6857 24.5588C50.2646 23.8057 49.1111 22.727 48.3528 21.4417C47.5946 20.1564 47.2608 18.7145 47.3884 17.2753C47.5161 15.836 48.1001 14.4552 49.0762 13.2854C50.0522 12.1157 51.3823 11.2024 52.9195 10.6463C54.4567 10.0902 56.1414 9.91309 57.7874 10.1344C59.4336 10.3557 60.977 10.9668 62.2476 11.9003C63.5182 12.8339 64.4664 14.0535 64.9876 15.4245H56.4062V20.3266H64.9876C64.3907 21.891 63.2405 23.253 61.7002 24.2191C60.1599 25.1853 58.3077 25.7066 56.4062 25.7093Z" fill="#FF70D9"/>
<path d="M32.4266 28.7302C31.7645 27.8444 30.7851 27.1633 29.3638 27.3854C26.0784 27.8987 27.8238 25.332 25.4624 26.3587C23.5734 27.1801 22.2113 29.5072 21.7664 30.5681C21.6295 29.9178 21.1094 28.4942 20.1238 28.0014C18.8918 27.3854 18.4811 28.4121 17.7624 27.3854C17.0437 26.3587 17.0437 24.9214 16.4277 23.484C15.8117 22.0467 18.4811 19.8907 20.1238 20.712C21.7664 21.5334 22.7931 21.02 23.6144 22.252C24.4358 23.484 25.4624 25.024 25.4624 20.712C25.4624 16.4 27.5158 14.4493 28.4398 14.552C29.3638 14.6547 32.2385 13.6278 31.7251 12.6013C31.2118 11.5749 28.4398 11.0613 28.4398 10.1373C28.4398 9.21332 29.6718 7.26289 28.4398 6.33889C27.2078 5.41489 24.1278 3.56688 21.7664 3.77221C19.4051 3.97755 18.6776 4.90216 18.6776 5.72349C18.6776 6.54483 21.7664 8.08507 20.1238 9.11119C18.4811 10.1373 13.1424 11.7795 13.1424 10.1373C13.1424 8.49519 12.8344 5.00451 13.8611 5.00451C14.8877 5.00451 15.1957 2.43784 15.8117 2.54051C16.4277 2.64317 18.9944 1.51449 20.1238 2.0275C20.47 2.18478 21.6075 1.88856 22.8885 1.35479M32.4266 28.7302C34.5826 25.8148 35.8573 22.2081 35.8573 18.3037C35.8573 10.1952 30.3596 3.37088 22.8885 1.35479M32.4266 28.7302C29.2293 33.0538 24.0939 35.8573 18.3037 35.8573C17.2728 35.8573 16.2627 35.7685 15.2806 35.598M15.2806 35.598C15.4133 34.8343 15.5869 34.2032 15.8117 33.8534C16.7357 32.4161 19.8158 33.4427 20.1238 32.7241C20.4318 32.0054 19.0971 31.1841 17.7624 30.5681C16.4277 29.9521 14.1691 29.3361 13.8611 26.3587C13.5531 23.3814 12.1157 23.8947 11.8077 23.484C11.4997 23.0734 7.90638 21.944 6.77673 19.8907C5.64708 17.8374 6.77704 14.3467 6.77673 13.4227C6.77651 12.7695 3.94435 12.0684 2.03387 11.7016M15.2806 35.598C7.02657 34.1652 0.75 26.9674 0.75 18.3037C0.75 15.9684 1.20602 13.7396 2.03387 11.7016M2.03387 11.7016C4.64274 5.27883 10.9443 0.75 18.3037 0.75C19.8899 0.75 21.4269 0.96039 22.8885 1.35479" stroke="#FF70D9" stroke-width="1.5" stroke-linecap="square" stroke-linejoin="round"/>
</svg>
